{"title":"Street.Trash.1987-zombiRG@THC","uid":12251943,"size":1933270356,"categoryP":"video","categoryS":"movies","magnet":"?xt=urn:btih:585657e592e081bbef5bfb0bd6184d3e171363c6&amp;dn=Street.Trash.1987-zombiRG%40THC&amp;tr=udp%3A%2F%2Ftracker.openbittorrent.com%3A80&amp;tr=udp%3A%2F%2Fopen.demonii.com%3A1337&amp;tr=udp%3A%2F%2Ftracker.coppersurfer.tk%3A6969&amp;tr=udp%3A%2F%2Fexodus.desync.com%3A6969","seeders":1,"leechers":0,"uploader":"zombiRG","files":1,"time":1440028845,"description":"IMDb link: http://www.imdb.com/title/tt0094057/\nIMDb rating: 6.0 (1,901 votes)\nRottenTomatoes: 57% 63%\nGenres: Comedy, Horror\n \nLanguage: English  \nSubtitles: NA/\n\nCast: Glenn Andreiev, Jane Arakawa, Gary Auerbach, Eddie Bay, Sam Blasco, Bill Bondanza, Judy Chin, Bill Chepil, Kevin Chin, Tony Darrow and others \n\nSummary:When a liquor store owner finds a case of &quot;Viper&quot; in his cellar, he decides to sell it to the local hobos at one dollar a bottle, unaware of its true properties. The drinks causes its consumers to melt, very messily. Two homeless lads find themselves up against the effects of the toxic brew, as well as going head to head with &quot;Bronson&quot; a Vietnam vet with sociopathic tendencies, and the owner of the junkyard they live in.\n\nscreenshot: http://i.imgur.com/GYNHgC7.jpg\nscreencap: http://i.imgur.com/2c6rUIA.jpg\n\n\nFormat : AVI\nFormat/Info : Audio Video Interleave\nFormat profile : OpenDML\nFile size : 1.80 GiB\nDuration : 1h 41mn\nOverall bit rate : 2 550 Kbps\nMovie name : Street.Trash-zombiRG@THC\nWriting application : Lavf55.33.100\nOriginal source form/Name : STREET_TRASH_SE_DISC_1\n\nVideo\nID : 0\nFormat : MPEG-4 Visual\nFormat profile : Advanced Simple@L5\nFormat settings, BVOP : 2\nFormat settings, QPel : No\nFormat settings, GMC : No warppoints\nFormat settings, Matrix : Default (MPEG)\nMuxing mode : Packed bitstream\nCodec ID : XVID\nCodec ID/Hint : XviD\nDuration : 1h 41mn\nBit rate : 2 091 Kbps\nWidth : 720 pixels\nHeight : 404 pixels\nDisplay aspect ratio : 16:9\nFrame rate : 23.976 fps\nColor space : YUV\nChroma subsampling : 4:2:0\nBit depth : 8 bits\nScan type : Progressive\nCompression mode : Lossy\nBits/(Pixel*Frame) : 0.300\nStream size : 1.48 GiB (82%)\nWriting library : XviD 64\n\nAudio\nID : 1\nFormat : AC-3\nFormat/Info : Audio Coding 3\nMode extension : CM (complete main)\nFormat settings, Endianness : Big\nCodec ID : 2000\nDuration : 1h 41mn\nBit rate mode : Constant\nBit rate : 448 Kbps\nChannel(s) : 6 channels\nChannel positions : Front: L C R, Side: L R, LFE\nSampling rate : 48.0 KHz\nCompression mode : Lossy\nStream size : 324 MiB (18%)\nAlignment : Aligned on interleaves\nInterleave, duration : 32 ms (0.77 video frame)","torrent":{"xt":"urn:btih:585657e592e081bbef5bfb0bd6184d3e171363c6","amp;dn":"Street.Trash.1987-zombiRG%40THC","amp;tr":["udp%3A%2F%2Ftracker.openbittorrent.com%3A80","udp%3A%2F%2Fopen.demonii.com%3A1337","udp%3A%2F%2Ftracker.coppersurfer.tk%3A6969","udp%3A%2F%2Fexodus.desync.com%3A6969"],"infoHash":"585657e592e081bbef5bfb0bd6184d3e171363c6","infoHashBuffer":{"type":"Buffer","data":[88,86,87,229,146,224,129,187,239,91,251,11,214,24,77,62,23,19,99,198]},"announce":[],"urlList":[]}}